name Walk1.mot
datacolumns 19
datarows 15
range 2.22500000 2.23900000
endheader

                time	   L_ground_force_vx	   L_ground_force_vy	   L_ground_force_vz	   L_ground_force_px	   L_ground_force_py	   L_ground_force_pz	   R_ground_force_vx	   R_ground_force_vy	   R_ground_force_vz	   R_ground_force_px	   R_ground_force_py	   R_ground_force_pz	   L_ground_torque_x	   L_ground_torque_y	   L_ground_torque_z	   R_ground_torque_x	   R_ground_torque_y	   R_ground_torque_z	
          2.22500000	          0.00662565	          0.02667056	          0.00113167	         -0.00012778	          0.00000000	         -0.00002626	        -14.95571948	        937.18968760	        -49.15341724	          0.32656078	          0.00000000	          0.13694550	          0.00000000	          0.00009244	          0.00000000	          0.00000000	          4.97399567	          0.00000000	
          2.22600000	          0.00564243	          0.02335628	          0.00102286	         -0.00012110	          0.00000000	         -0.00002527	        -14.82035242	        935.90944687	        -49.05397167	          0.32700366	          0.00000000	          0.13704589	          0.00000000	          0.00009096	          0.00000000	          0.00000000	          4.93711147	          0.00000000	
          2.22700000	          0.00472149	          0.02023554	          0.00091944	         -0.00011453	          0.00000000	         -0.00002426	        -14.68491689	        934.64376635	        -48.96644158	          0.32744692	          0.00000000	          0.13714702	          0.00000000	          0.00008927	          0.00000000	          0.00000000	          4.90162815	          0.00000000	
          2.22800000	          0.00386101	          0.01730366	          0.00082134	         -0.00010809	          0.00000000	         -0.00002325	        -14.54912456	        933.39302023	        -48.89058662	          0.32789031	          0.00000000	          0.13724879	          0.00000000	          0.00008738	          0.00000000	          0.00000000	          4.86750387	          0.00000000	
          2.22900000	          0.00305910	          0.01455568	          0.00072848	         -0.00010179	          0.00000000	         -0.00002224	        -14.41269423	        932.15761809	        -48.82613454	          0.32833360	          0.00000000	          0.13735116	          0.00000000	          0.00008532	          0.00000000	          0.00000000	          4.83469568	          0.00000000	
          2.23000000	          0.00231381	          0.01198635	          0.00064075	         -0.00009564	          0.00000000	         -0.00002123	        -14.27535288	        930.93800433	        -48.77278255	          0.32877653	          0.00000000	          0.13745404	          0.00000000	          0.00008312	          0.00000000	          0.00000000	          4.80315992	          0.00000000	
          2.23100000	          0.00162315	          0.00959017	          0.00055807	         -0.00008965	          0.00000000	         -0.00002022	        -14.13683649	        929.73465678	        -48.73019917	          0.32921887	          0.00000000	          0.13755738	          0.00000000	          0.00008079	          0.00000000	          0.00000000	          4.77285261	          0.00000000	
          2.23200000	          0.00098508	          0.00736149	          0.00048031	         -0.00008383	          0.00000000	         -0.00001923	        -13.99689072	        928.54808505	        -48.69802646	          0.32966036	          0.00000000	          0.13766109	          0.00000000	          0.00007835	          0.00000000	          0.00000000	          4.74372994	          0.00000000	
          2.23300000	          0.00039753	          0.00529448	          0.00040734	         -0.00007819	          0.00000000	         -0.00001825	        -13.85527164	        927.37882914	        -48.67588243	          0.33010078	          0.00000000	          0.13776511	          0.00000000	          0.00007583	          0.00000000	          0.00000000	          4.71574856	          0.00000000	
          2.23400000	         -0.00014156	          0.00338322	          0.00033904	         -0.00007274	          0.00000000	         -0.00001728	        -13.71174638	        926.22745868	        -48.66336350	          0.33053988	          0.00000000	          0.13786937	          0.00000000	          0.00007323	          0.00000000	          0.00000000	          4.68886573	          0.00000000	
          2.23500000	         -0.00063428	          0.00162167	          0.00027526	         -0.00006747	          0.00000000	         -0.00001632	        -13.56609358	        925.09457251	        -48.66004681	          0.33097744	          0.00000000	          0.13797379	          0.00000000	          0.00007057	          0.00000000	          0.00000000	          4.66303927	          0.00000000	
          2.23600000	         -0.00108271	          0.00000377	          0.00021587	         -0.00006239	          0.00000000	         -0.00001539	        -13.41810348	        923.98079833	        -48.66549226	          0.33141323	          0.00000000	          0.13807831	          0.00000000	          0.00006788	          0.00000000	          0.00000000	          4.63822738	          0.00000000	
          2.23700000	         -0.00148892	         -0.00147659	          0.00016071	         -0.00005751	          0.00000000	         -0.00001448	        -13.26757777	        922.88679203	        -48.67924478	          0.33184705	          0.00000000	          0.13818285	          0.00000000	          0.00006516	          0.00000000	          0.00000000	          4.61438853	          0.00000000	
          2.23800000	         -0.00185497	         -0.00282550	          0.00010963	         -0.00005283	          0.00000000	         -0.00001359	        -13.11432919	        921.81323631	        -48.70083669	          0.33227867	          0.00000000	          0.13828735	          0.00000000	          0.00006242	          0.00000000	          0.00000000	          4.59148140	          0.00000000	
          2.23900000	         -0.00218289	         -0.00404904	          0.00006248	         -0.00004835	          0.00000000	         -0.00001273	        -12.95818127	        920.76083873	        -48.72979066	          0.33270791	          0.00000000	          0.13839173	          0.00000000	          0.00005968	          0.00000000	          0.00000000	          4.56946489	          0.00000000	
